<?xml version="1.0" encoding="UTF-8"?>
<svg width="120" height="40" viewBox="0 0 120 40" fill="none" xmlns="http://www.w3.org/2000/svg">
    <path d="M20.4 30.8C18.2 30.8 16.2667 30.3333 14.6 29.4C12.9333 28.4667 11.6667 27.1333 10.8 25.4C9.93333 23.6667 9.5 21.6 9.5 19.2C9.5 16.8 9.93333 14.7333 10.8 13C11.6667 11.2667 12.9333 9.93333 14.6 9C16.2667 8.06667 18.2 7.6 20.4 7.6C22.6 7.6 24.5333 8.06667 26.2 9C27.8667 9.93333 29.1333 11.2667 30 13C30.8667 14.7333 31.3 16.8 31.3 19.2C31.3 21.6 30.8667 23.6667 30 25.4C29.1333 27.1333 27.8667 28.4667 26.2 29.4C24.5333 30.3333 22.6 30.8 20.4 30.8Z" fill="#FF6B6B"/>
    <path d="M45.9 30.5C43.7 30.5 41.7667 30.0333 40.1 29.1C38.4333 28.1667 37.1667 26.8333 36.3 25.1C35.4333 23.3667 35 21.3 35 19C35 16.7 35.4333 14.6333 36.3 12.9C37.1667 11.1667 38.4333 9.83333 40.1 8.9C41.7667 7.96667 43.7 7.5 45.9 7.5C48.1 7.5 50.0333 7.96667 51.7 8.9C53.3667 9.83333 54.6333 11.1667 55.5 12.9C56.3667 14.6333 56.8 16.7 56.8 19C56.8 21.3 56.3667 23.3667 55.5 25.1C54.6333 26.8333 53.3667 28.1667 51.7 29.1C50.0333 30.0333 48.1 30.5 45.9 30.5Z" fill="#FF6B6B"/>
    <path d="M71.4 30.2C69.2 30.2 67.2667 29.7333 65.6 28.8C63.9333 27.8667 62.6667 26.5333 61.8 24.8C60.9333 23.0667 60.5 21 60.5 18.6C60.5 16.2 60.9333 14.1333 61.8 12.4C62.6667 10.6667 63.9333 9.33333 65.6 8.4C67.2667 7.46667 69.2 7 71.4 7C73.6 7 75.5333 7.46667 77.2 8.4C78.8667 9.33333 80.1333 10.6667 81 12.4C81.8667 14.1333 82.3 16.2 82.3 18.6C82.3 21 81.8667 23.0667 81 24.8C80.1333 26.5333 78.8667 27.8667 77.2 28.8C75.5333 29.7333 73.6 30.2 71.4 30.2Z" fill="#FF6B6B"/>
    <path d="M96.9 29.9C94.7 29.9 92.7667 29.4333 91.1 28.5C89.4333 27.5667 88.1667 26.2333 87.3 24.5C86.4333 22.7667 86 20.7 86 18.3C86 15.9 86.4333 13.8333 87.3 12.1C88.1667 10.3667 89.4333 9.03333 91.1 8.1C92.7667 7.16667 94.7 6.7 96.9 6.7C99.1 6.7 101.033 7.16667 102.7 8.1C104.367 9.03333 105.633 10.3667 106.5 12.1C107.367 13.8333 107.8 15.9 107.8 18.3C107.8 20.7 107.367 22.7667 106.5 24.5C105.633 26.2333 104.367 27.5667 102.7 28.5C101.033 29.4333 99.1 29.9 96.9 29.9Z" fill="#FF6B6B"/>
</svg>
