<svg id="Layer_1" data-name="Layer 1" xmlns="http://www.w3.org/2000/svg" viewBox="0 0 864 239.8939">
  <g>
    <path id="fullLogo" d="M404.3988,17.8009V159.8767l-27.1173-.0948.0476-13.3861a78.5325,78.5325,0,0,1-48.0042,15.7069A80.3341,80.3341,0,1,1,377.787,17.8009S404.4446,17.7551,404.3988,17.8009Zm-74.7879,110.04A45.585,45.585,0,0,0,375.6916,81.76a46.0807,46.0807,0,1,0-92.1613,0A45.585,45.585,0,0,0,329.6109,127.8406Z" style="fill: #D06363"/>
    <path id="fullLogo-2" data-name="fullLogo" d="M783.1894.3559A80.7887,80.7887,0,0,1,864,81.1717c0,45.2815-36.1595,81.4409-80.8106,81.4409a81.0562,81.0562,0,0,1-81.4409-81.4409C701.7485,36.5206,737.908.3558,783.1894.3559Zm0,127.3527c25.782,0,46.2244-20.437,46.2244-46.5369a46.2255,46.2255,0,0,0-92.4488,0C736.965,107.2716,757.4021,127.7086,783.1894,127.7086Z" style="fill: #D06363"/>
    <path id="fullLogo-3" data-name="fullLogo" d="M516.1908,0C481.6181,0,467.878,22.3025,467.878,22.3025l2.337-18.9789h-34.11V159.6171h34.4713V75.6152c0-30.4569,13.6386-41.8346,33.7158-41.8346A31.3417,31.3417,0,0,1,516.16,36.0048l.0085-6.1049h.0479V0C516.2077,0,516.1993,0,516.1908,0Z" style="fill: #D06363"/>
    <path id="fullLogo-4" data-name="fullLogo" d="M173.8.464c-14.3884,0-32.0469,4.0143-46.768,31.1223C118.3266,11.8417,102.5964.464,77.8339.464L77.84.4552c-32.9236.9359-46.066,22.27-46.066,22.27l2.337-18.9789H0V160.04H34.4713V76.0383c0-17.088,4.2962-28.1661,11.6088-34.6027,5.7171-4.995,13.2637-7.1713,22.045-7.1713.5271,0,1.0374.0522,1.5589.0754q1.6026.07,3.1461.2862c1.0233.143,2.0212.33,3.0022.5666.9557.23,1.8944.5028,2.8078.8214,12.6716,4.4312,21.0132,17.2205,21.2782,36.4034v87.6836H134.39V76.099c0-25.1008,9.2916-41.8346,32.047-41.8346,20.0828,0,33.135,14.3884,33.135,38.8239v87.0126h34.4712V70.0719C234.0428,25.5648,212.2854.464,173.8.464Z" style="fill: #D06363"/>
    <path id="fullLogo-5" data-name="fullLogo" d="M679.9038,3.0413H647.8315l1.9592,15.7056A79.9462,79.9462,0,0,0,612.5286,2.1043c-.967-.17-1.9536-.3165-2.9572-.4511-1.012-.1279-2.0184-.2646-3.0389-.3548-2.2778-.2111-4.612-.3538-7.0589-.3559-.0338,0-.0649-.005-.0987-.005a80.7012,80.7012,0,1,0,0,161.4013c.4792,0,.9472-.04,1.4236-.0479a66.9347,66.9347,0,0,0,19.37-2.6919c.4342-.1162.8627-.2459,1.294-.3693.0958-.031.1945-.0584.29-.09a79.5787,79.5787,0,0,0,27.68-14.4433c-.5525,8.8-.93,16.3688-1.6463,23.8241-1.9733,20.5307-13.0324,32.5779-33.4339,36.5151-4.95.9556-10.0019,1.3982-15.485,2.1417v28.0351c35.5341,4.6817,65.6274-13.4726,75.7111-46.14a122.6538,122.6538,0,0,0,5.3139-34.2908l-.0141-.0726.0254.0669ZM553.3963,81.3272a45.9811,45.9811,0,0,1,91.96,0c0,25.9624-20.3338,46.2915-45.9814,46.2915C573.7244,127.6187,553.3963,107.29,553.3963,81.3272Z" style="fill: #D06363"/>
  </g>
</svg> 